<svg width="21" height="20" viewBox="0 0 21 20" fill="none" xmlns="http://www.w3.org/2000/svg"><rect x=".13" width="20" height="20" rx="10" fill="#7DB54F"/><path d="M6.26 11.76h1.4V6.92l.1-.59-.4.47-1.1.79-.38-.51 2.2-1.7h.36v6.38h1.37v.74H6.26v-.74Zm7.83-4.67c0 .35-.06.72-.2 1.09-.12.37-.3.74-.5 1.11-.21.37-.45.74-.7 1.1l-.79 1.01-.49.43v.04l.64-.11h2.18v.74h-3.98v-.29a32.75 32.75 0 0 0 1.17-1.32 15.09 15.09 0 0 0 1.25-1.83c.18-.32.33-.64.43-.95.11-.31.16-.61.16-.89 0-.33-.09-.6-.28-.81-.18-.22-.47-.33-.85-.33-.25 0-.5.05-.74.16-.24.1-.44.22-.62.35l-.33-.57c.24-.2.51-.36.83-.47.32-.11.67-.17 1.03-.17.29 0 .54.04.76.13a1.5 1.5 0 0 1 .91.9c.08.2.12.43.12.68Z" fill="#fff"/></svg>