<svg width="16" height="14" viewBox="0 0 16 14" fill="none" xmlns="http://www.w3.org/2000/svg"><path fill="#E5E5E5" d="M0 0h16v14H0z"/><g clip-path="url(#a)"><path fill="#F2F2F2" d="M-1025-540H255v2216h-1280z"/><g filter="url(#b)"><path fill="#fff" d="M-985-540H215v2216H-985z"/></g><path fill="#fff" d="M-985-67H215v1212H-985z"/><path d="M4 0H0v6h4V0ZM16 0h-4v6h4V0ZM10 0H6v6h4V0ZM4 8H0v6h4V8ZM16 8h-4v6h4V8ZM10 8H6v6h4V8ZM-12-15h40v-4h-40v4Zm42 2v40h4v-40h-4Zm-2 42h-40v4h40v-4Zm-42-2v-40h-4v40h4Zm2 2a2 2 0 0 1-2-2h-4a6 6 0 0 0 6 6v-4Zm42-2a2 2 0 0 1-2 2v4a6 6 0 0 0 6-6h-4Zm-2-42a2 2 0 0 1 2 2h4a6 6 0 0 0-6-6v4Zm-40-4a6 6 0 0 0-6 6h4c0-1.1.9-2 2-2v-4Z" fill="#000"/></g><defs><clipPath id="a"><path fill="#fff" transform="translate(-1025 -540)" d="M0 0h1280v2216H0z"/></clipPath><filter id="b" x="-1000" y="-555" width="1230" height="2246" filterUnits="userSpaceOnUse" color-interpolation-filters="sRGB"><feFlood flood-opacity="0" result="BackgroundImageFix"/><feColorMatrix in="SourceAlpha" values="0 0 0 0 0 0 0 0 0 0 0 0 0 0 0 0 0 0 127 0" result="hardAlpha"/><feOffset/><feGaussianBlur stdDeviation="7.5"/><feColorMatrix values="0 0 0 0 0 0 0 0 0 0 0 0 0 0 0 0 0 0 0.2 0"/><feBlend in2="BackgroundImageFix" result="effect1_dropShadow_0_1"/><feBlend in="SourceGraphic" in2="effect1_dropShadow_0_1" result="shape"/></filter></defs></svg>