<svg width="76" height="73" fill="none" xmlns="http://www.w3.org/2000/svg"><path d="M30.1 65.5h16V41.7h-16v23.8Zm3-20.9h10v18h-10v-18Z" fill="#83B3D3"/><path d="m73.2 39.8 2.1-2.1-9.9-9.9V.5H51.5v13.6L38 .5.6 37.7l2.1 2.1 7.8-7.8v37.6h-4v2.9h64v-2.9h-5.2V32l8 7.8ZM62.4 69.6h-49V29L38 4.6 62.4 29v40.6Zm0-44.7L54.5 17V3.4h8v21.5Z" fill="#83B3D3"/><path d="M30.3 27.6c0 4.3 3.5 7.7 7.7 7.7 4.3 0 7.8-3.5 7.8-7.7 0-4.3-3.5-7.7-7.8-7.7a7.7 7.7 0 0 0-7.7 7.7Zm7.8-5a5 5 0 0 1 5 4.9 5 5 0 0 1-5 4.9 5 5 0 0 1-5-4.9 5 5 0 0 1 5-4.9ZM20.5 41.7h-3v3.9h3v-3.9ZM26.4 41.7h-3v3.9h3v-3.9ZM20.5 47.7h-3v3.9h3v-3.9ZM26.4 47.7h-3v3.9h3v-3.9ZM52.4 41.7h-3v3.9h3v-3.9ZM58.3 41.7h-3v3.9h3v-3.9ZM52.4 47.7h-3v3.9h3v-3.9ZM58.3 47.7h-3v3.9h3v-3.9Z" fill="#83B3D3"/></svg>